<?xml version="1.0" ?><!DOCTYPE svg  PUBLIC '-//W3C//DTD SVG 1.1//EN'  'http://www.w3.org/Graphics/SVG/1.1/DTD/svg11.dtd'><svg enable-background="new 0 0 512 512" height="512px" id="Layer_1" version="1.1" viewBox="0 0 512 512" width="512px" xml:space="preserve" xmlns="http://www.w3.org/2000/svg" xmlns:xlink="http://www.w3.org/1999/xlink"><g><g opacity="0.12"><g><rect fill="none" height="100%" width="100%" x="65.86" y="383.949"/><path d="M65.86,447.459c0,35.104,91.2,63.541,203.721,63.541c112.515,0,203.724-28.438,203.724-63.541     c0-35.078-91.209-63.518-203.724-63.518C157.06,383.941,65.86,412.381,65.86,447.459" fill="#231F20"/></g></g><path d="M421.302,380.906c0,0,16.018,18.854,4.715,47.117c-11.306,28.268-73.505,15.084-75.386,0   c0,0-49.951,8.486-36.758-33.932c0,0,5.656-9.41,12.247-13.186H421.302z" fill="#989897"/><path d="M291.26,423.314c0,0,26.379,26.379,0,53.709c-26.386,27.334-92.356,11.309-86.708-11.305   c0,0-70.673,13.197-58.425-32.98c12.247-46.176,26.51-34.877,26.51-34.877L291.26,423.314z" fill="#989897"/><path d="M414.708,309.281c0,0-7.544,36.75,6.591,71.619c0,0-12.245,32.99-58.421,11.316   c0,0-34.867,9.422-36.756-11.316v-26.459C326.122,354.441,379.841,305.512,414.708,309.281" fill="#F3CBA2"/><path d="M293.141,362.055c0,0-6.596,28.275-1.881,61.26c0,0-44.299,37.689-75.401,0c0,0-46.269,8.992-48.102-26.59   c0,0,17.953-22.418,24.554-53.52L293.141,362.055z" fill="#F3CBA2"/><path d="M421.302,292.328c0,0,25.454,35.799,44.293,0c0,0,40.521,1.875,20.729-28.28   c0,0,30.692-14.138,5.448-30.151c0,0,4.928-35.816-19.58-14.14c0,0,4.715-27.325-17.909-28.278L421.302,292.328z" fill="#D0D2D3"/><path d="M230.443,359.229c0,0,19.348,49.947,52.331,5.662c0,0,46.175,39.203,53.72-10.547   c0,0,55.599,18.07,55.599-35.639c0,0,54.656,8.486,43.344-45.236c0,0,50.894-14.129,20.739-55.597c0,0,33.917-29.208-1.89-45.235   c0,0,32.044-44.287-14.135-52.775c0,0,32.98-61.251-41.461-55.594c0,0-9.529-49.001-48.106-25.44c0,0-11.266-42.412-52.734-12.26   c0,0-38.686-55.594-67.406-2.824c0,0-59.815-22.611-49.441,34.867c0,0-68.793-14.135-46.177,55.599l46.177,213.918   C181.002,328.127,187.543,379.014,230.443,359.229" fill="#F1F1F2"/><g><path d="M284.64,195.629v-37.936l-18.021-52.183h11.633l11.566,35.634l11.407-35.634h11.43l-18.103,52.304v37.814H284.64z"/><path d="M310.28,162.068c0-6.41,0.844-12.242,2.538-17.488c1.693-5.257,3.907-9.201,6.636-11.828    c2.728-2.629,5.798-3.942,9.216-3.942c5.732,0,10.235,3.375,13.512,10.132c3.277,6.754,4.914,14.648,4.914,23.681    c0,6.728-0.853,12.805-2.56,18.226c-1.705,5.422-3.941,9.502-6.715,12.229c-2.771,2.725-5.808,4.091-9.111,4.091    c-5.296,0-9.692-3.035-13.19-9.114C312.027,181.979,310.28,173.315,310.28,162.068z M319.946,162.989    c0,6.622,0.859,11.628,2.588,15.02c1.72,3.388,3.802,5.085,6.235,5.085c2.383,0,4.423-1.707,6.119-5.118    c1.695-3.412,2.545-8.448,2.545-15.108c0-6.497-0.863-11.451-2.588-14.863c-1.723-3.411-3.788-5.116-6.199-5.116    c-2.379,0-4.429,1.705-6.136,5.116C320.801,151.416,319.946,156.413,319.946,162.989z"/><path d="M377.902,195.629v-9.758c-1.312,3.539-3.031,6.312-5.156,8.301c-2.125,1.997-4.347,2.995-6.668,2.995    c-2.344,0-4.442-0.92-6.29-2.765c-1.856-1.846-3.239-4.473-4.153-7.881c-0.91-3.398-1.37-8.344-1.37-14.818v-41.357h9.46v30    c0,8.566,0.145,14.008,0.433,16.323c0.282,2.317,0.917,4.114,1.898,5.377c0.979,1.272,2.163,1.907,3.553,1.907    c1.58,0,3.034-0.83,4.366-2.488c1.338-1.662,2.214-3.791,2.64-6.395c0.415-2.602,0.627-8.331,0.627-17.186v-27.539h9.463v65.283    H377.902z"/></g><path d="M188.541,157.562c0,0,33.918-60.312,94.237-39.582c0,0,15.074,65.028-64.096,81.997   c0,0,66.92,144.181-41.449,160.198c0,0-38.64,60.311-84.817,20.73c0,0-45.231,37.688-71.618-37.701   c-26.392-75.385,1.879-87.634,29.209-133.811c0,0-49.001-14.33-35.815-95.744c0,0,51.839-3.205,75.393,25.062L188.541,157.562z" fill="#F3CBA2"/><path d="M61.316,327.191   c0,0,26.936,39.525,68.938,0" fill="none" stroke="#C8A988" stroke-linecap="round" stroke-miterlimit="10" stroke-width="4.7474"/><path d="M158.379,327.191   c0,0,26.387-1.893,26.387-29.217" fill="none" stroke="#C8A988" stroke-linecap="round" stroke-miterlimit="10" stroke-width="4.7474"/><path d="M89.585,344.756   c0,0-8.103,28.527,2.831,36.145" fill="none" stroke="#C8A988" stroke-linecap="round" stroke-miterlimit="10" stroke-width="4.7474"/><path d="M178.58,316.938   c0,0,12.036,27.477-1.353,43.238" fill="none" stroke="#C8A988" stroke-linecap="round" stroke-miterlimit="10" stroke-width="4.7474"/><path d="M70.739,232.01c0,9.082-4.208,16.442-9.423,16.442c-5.202,0-9.423-7.36-9.423-16.442   c0-9.08,4.222-16.443,9.423-16.443C66.531,215.566,70.739,222.93,70.739,232.01" fill="#434445"/><path d="M167.811,232.01c0,9.082-4.21,16.442-9.425,16.442c-5.2,0-9.43-7.36-9.43-16.442   c0-9.08,4.23-16.443,9.43-16.443C163.601,215.566,167.811,222.93,167.811,232.01" fill="#434445"/><path d="M201.728,192.109c0,0-10.836-64.706,67.851-59.051C269.578,133.059,270.521,182.828,201.728,192.109" fill="#F6B5CE"/><path d="M32.107,136.361c0,0,47.451-14.604,54.596,47.589C86.703,183.95,36.349,202.322,32.107,136.361" fill="#F6B5CE"/><path d="M95.791,113.535c0,0,15.919-39.371,48.903-6.865c0,0,46.67-31.095,45.726,15.553   c0,0,51.01,14.788,6.126,42.412c0,0,15.924,48.057-28.782,31.094c0,0-14.565,37.41-45.193,3.631c0,0-36.419,30.293-35.868-19.178   c0,0-44.72-2.905-11.964-30.421C74.739,149.761,44.972,106.267,95.791,113.535" fill="#D0D2D3"/><path d="M399.952,280.797c0,12.195-9.888,22.082-22.083,22.082H274.376c-12.193,0-22.082-9.887-22.082-22.082   v-55.195c0-12.201,9.888-22.084,22.082-22.084h103.493c12.195,0,22.083,9.883,22.083,22.084V280.797z" fill="#EB1D27"/><g><path d="M273.739,284.492v-54.518h-11.762v-11.098h31.456v11.098h-11.726v54.518H273.739z" fill="#FFFFFF"/><path d="M313.327,284.492v-7.113c-1.055,2.584-2.436,4.592-4.141,6.051c-1.714,1.457-3.496,2.178-5.364,2.178    c-1.886,0-3.572-0.668-5.063-2.01c-1.487-1.35-2.598-3.256-3.337-5.736c-0.732-2.477-1.099-6.076-1.099-10.799v-30.102h7.606    v21.841c0,6.239,0.113,10.194,0.346,11.888c0.226,1.68,0.738,2.98,1.53,3.914c0.784,0.92,1.736,1.385,2.853,1.385    c1.269,0,2.443-0.604,3.515-1.812c1.069-1.215,1.777-2.76,2.12-4.656c0.338-1.893,0.506-6.062,0.506-12.511v-20.048h7.604v47.531    H313.327z" fill="#FFFFFF"/><path d="M327.948,284.492v-65.615h7.611v23.589c1.159-2.208,2.436-3.861,3.832-4.968    c1.388-1.102,2.882-1.652,4.483-1.652c3.376,0,6.229,2.074,8.563,6.225c2.338,4.157,3.508,10.283,3.508,18.389    c0,8.068-1.202,14.273-3.586,18.631c-2.391,4.346-5.198,6.518-8.419,6.518c-1.645,0-3.267-0.693-4.865-2.078    c-1.599-1.389-2.962-3.396-4.083-6.018v6.98H327.948z M335.49,259.688c0,4.104,0.289,7.231,0.854,9.384    c0.57,2.162,1.386,3.799,2.44,4.92c1.051,1.123,2.166,1.682,3.325,1.682c1.668,0,3.1-1.189,4.281-3.566    c1.186-2.385,1.779-6.146,1.779-11.297c0-5.409-0.598-9.323-1.796-11.728c-1.197-2.417-2.714-3.626-4.561-3.626    c-1.757,0-3.251,1.176-4.478,3.51C336.104,251.305,335.49,254.874,335.49,259.688z" fill="#FFFFFF"/><path d="M378.769,269.408l7.537,2.102c-1.009,4.773-2.58,8.32-4.715,10.631c-2.132,2.311-4.728,3.467-7.779,3.467    c-4.243,0-7.518-1.922-9.825-5.783c-2.728-4.486-4.09-10.766-4.09-18.827c0-7.953,1.371-14.317,4.113-19.105    c2.331-4.038,5.339-6.046,9.024-6.046c4.104,0,7.325,2.062,9.649,6.186c2.68,4.715,4.021,11.681,4.021,20.881l-0.036,1.438    h-19.001c0.043,3.772,0.668,6.694,1.868,8.763c1.198,2.068,2.643,3.092,4.343,3.092    C376.318,276.205,377.948,273.947,378.769,269.408z M379.16,256.647c-0.062-3.709-0.644-6.498-1.743-8.378    c-1.102-1.866-2.403-2.812-3.918-2.812c-1.606,0-2.955,0.979-4.052,2.923c-1.123,1.979-1.672,4.734-1.646,8.268H379.16z" fill="#FFFFFF"/></g></g></svg>